<mxfile host="app.diagrams.net" modified="2021-12-13T02:18:34.087Z" agent="5.0 (Windows NT 10.0; Win64; x64) AppleWebKit/537.36 (KHTML, like Gecko) Chrome/96.0.4664.45 Safari/537.36" etag="gAJ3_arDctxgSwDsWsmH" version="15.8.9" type="github">
  <diagram id="AkcPyndH6maxKv0dhbkd" name="第 1 页">
    <mxGraphModel dx="2012" dy="635" grid="1" gridSize="10" guides="1" tooltips="1" connect="1" arrows="1" fold="1" page="1" pageScale="1" pageWidth="827" pageHeight="1169" math="0" shadow="0">
      <root>
        <mxCell id="0" />
        <mxCell id="1" parent="0" />
        <mxCell id="zeVZz8eFkJ2jSE9SBWDc-14" style="edgeStyle=orthogonalEdgeStyle;rounded=0;orthogonalLoop=1;jettySize=auto;html=1;exitX=0.5;exitY=1;exitDx=0;exitDy=0;exitPerimeter=0;entryX=0.5;entryY=0;entryDx=0;entryDy=0;entryPerimeter=0;" edge="1" parent="1" target="zeVZz8eFkJ2jSE9SBWDc-4">
          <mxGeometry relative="1" as="geometry">
            <mxPoint x="400" y="320" as="sourcePoint" />
          </mxGeometry>
        </mxCell>
        <mxCell id="zeVZz8eFkJ2jSE9SBWDc-8" style="edgeStyle=orthogonalEdgeStyle;rounded=0;orthogonalLoop=1;jettySize=auto;html=1;exitX=0.5;exitY=1;exitDx=0;exitDy=0;exitPerimeter=0;" edge="1" parent="1" source="zeVZz8eFkJ2jSE9SBWDc-4">
          <mxGeometry relative="1" as="geometry">
            <mxPoint x="400" y="600" as="targetPoint" />
          </mxGeometry>
        </mxCell>
        <mxCell id="zeVZz8eFkJ2jSE9SBWDc-18" style="edgeStyle=orthogonalEdgeStyle;rounded=0;orthogonalLoop=1;jettySize=auto;html=1;exitX=1;exitY=0.5;exitDx=0;exitDy=0;exitPerimeter=0;entryX=1;entryY=0.5;entryDx=0;entryDy=0;" edge="1" parent="1" source="zeVZz8eFkJ2jSE9SBWDc-4">
          <mxGeometry relative="1" as="geometry">
            <mxPoint x="460" y="1040" as="targetPoint" />
            <Array as="points">
              <mxPoint x="520" y="455" />
              <mxPoint x="520" y="1040" />
            </Array>
          </mxGeometry>
        </mxCell>
        <mxCell id="zeVZz8eFkJ2jSE9SBWDc-4" value="是否需要使用场景构建平台材质库里面的材质" style="strokeWidth=2;html=1;shape=mxgraph.flowchart.decision;whiteSpace=wrap;" vertex="1" parent="1">
          <mxGeometry x="330" y="390" width="140" height="130" as="geometry" />
        </mxCell>
        <mxCell id="zeVZz8eFkJ2jSE9SBWDc-19" value="方案一：美术人员工作流程，将BIM图层信息写入到数据库" style="rounded=0;whiteSpace=wrap;html=1;" vertex="1" parent="1">
          <mxGeometry x="340" y="10" width="120" height="60" as="geometry" />
        </mxCell>
        <mxCell id="zeVZz8eFkJ2jSE9SBWDc-28" value="" style="edgeStyle=orthogonalEdgeStyle;rounded=0;orthogonalLoop=1;jettySize=auto;html=1;" edge="1" parent="1" source="zeVZz8eFkJ2jSE9SBWDc-25" target="zeVZz8eFkJ2jSE9SBWDc-27">
          <mxGeometry relative="1" as="geometry" />
        </mxCell>
        <mxCell id="zeVZz8eFkJ2jSE9SBWDc-25" value="&lt;span&gt;批量替换选中图层所有对象的材质&lt;/span&gt;" style="rounded=1;whiteSpace=wrap;html=1;absoluteArcSize=1;arcSize=14;strokeWidth=2;" vertex="1" parent="1">
          <mxGeometry x="350" y="600" width="100" height="100" as="geometry" />
        </mxCell>
        <mxCell id="zeVZz8eFkJ2jSE9SBWDc-31" value="" style="edgeStyle=orthogonalEdgeStyle;rounded=0;orthogonalLoop=1;jettySize=auto;html=1;" edge="1" parent="1" source="zeVZz8eFkJ2jSE9SBWDc-26">
          <mxGeometry relative="1" as="geometry">
            <mxPoint x="400" y="1200" as="targetPoint" />
          </mxGeometry>
        </mxCell>
        <mxCell id="zeVZz8eFkJ2jSE9SBWDc-26" value="点击同步按钮将BIM图层信息以及这层材质功能写入到数据库" style="rounded=1;whiteSpace=wrap;html=1;absoluteArcSize=1;arcSize=14;strokeWidth=2;" vertex="1" parent="1">
          <mxGeometry x="350" y="1000" width="100" height="100" as="geometry" />
        </mxCell>
        <mxCell id="zeVZz8eFkJ2jSE9SBWDc-29" value="" style="edgeStyle=orthogonalEdgeStyle;rounded=0;orthogonalLoop=1;jettySize=auto;html=1;" edge="1" parent="1" source="zeVZz8eFkJ2jSE9SBWDc-27" target="zeVZz8eFkJ2jSE9SBWDc-26">
          <mxGeometry relative="1" as="geometry" />
        </mxCell>
        <mxCell id="zeVZz8eFkJ2jSE9SBWDc-27" value="在UE中保存材质关系" style="rounded=1;whiteSpace=wrap;html=1;absoluteArcSize=1;arcSize=14;strokeWidth=2;" vertex="1" parent="1">
          <mxGeometry x="350" y="800" width="100" height="100" as="geometry" />
        </mxCell>
        <mxCell id="zeVZz8eFkJ2jSE9SBWDc-34" value="" style="edgeStyle=orthogonalEdgeStyle;rounded=0;orthogonalLoop=1;jettySize=auto;html=1;" edge="1" parent="1" source="zeVZz8eFkJ2jSE9SBWDc-32">
          <mxGeometry relative="1" as="geometry">
            <mxPoint x="400" y="1360" as="targetPoint" />
          </mxGeometry>
        </mxCell>
        <mxCell id="zeVZz8eFkJ2jSE9SBWDc-43" value="" style="edgeStyle=orthogonalEdgeStyle;rounded=0;orthogonalLoop=1;jettySize=auto;html=1;" edge="1" parent="1" source="zeVZz8eFkJ2jSE9SBWDc-32">
          <mxGeometry relative="1" as="geometry">
            <mxPoint x="280" y="1240" as="targetPoint" />
          </mxGeometry>
        </mxCell>
        <mxCell id="zeVZz8eFkJ2jSE9SBWDc-49" style="edgeStyle=orthogonalEdgeStyle;rounded=0;orthogonalLoop=1;jettySize=auto;html=1;exitX=1;exitY=0.5;exitDx=0;exitDy=0;exitPerimeter=0;entryX=-0.011;entryY=0.556;entryDx=0;entryDy=0;entryPerimeter=0;" edge="1" parent="1" source="zeVZz8eFkJ2jSE9SBWDc-32" target="zeVZz8eFkJ2jSE9SBWDc-48">
          <mxGeometry relative="1" as="geometry" />
        </mxCell>
        <mxCell id="zeVZz8eFkJ2jSE9SBWDc-32" value="数据库写入图层信息和材质功能信息&lt;br&gt;" style="strokeWidth=2;html=1;shape=mxgraph.flowchart.database;whiteSpace=wrap;" vertex="1" parent="1">
          <mxGeometry x="350" y="1200" width="100" height="80" as="geometry" />
        </mxCell>
        <mxCell id="zeVZz8eFkJ2jSE9SBWDc-38" value="结束" style="strokeWidth=2;html=1;shape=mxgraph.flowchart.start_1;whiteSpace=wrap;" vertex="1" parent="1">
          <mxGeometry x="350" y="1360" width="100" height="60" as="geometry" />
        </mxCell>
        <mxCell id="zeVZz8eFkJ2jSE9SBWDc-39" value="美术人员将BIM模型导入到UE4编辑器" style="rounded=1;whiteSpace=wrap;html=1;absoluteArcSize=1;arcSize=14;strokeWidth=2;" vertex="1" parent="1">
          <mxGeometry x="350" y="220" width="100" height="100" as="geometry" />
        </mxCell>
        <mxCell id="zeVZz8eFkJ2jSE9SBWDc-41" value="" style="edgeStyle=orthogonalEdgeStyle;rounded=0;orthogonalLoop=1;jettySize=auto;html=1;" edge="1" parent="1" source="zeVZz8eFkJ2jSE9SBWDc-40" target="zeVZz8eFkJ2jSE9SBWDc-39">
          <mxGeometry relative="1" as="geometry" />
        </mxCell>
        <mxCell id="zeVZz8eFkJ2jSE9SBWDc-40" value="开始" style="strokeWidth=2;html=1;shape=mxgraph.flowchart.start_1;whiteSpace=wrap;" vertex="1" parent="1">
          <mxGeometry x="350" y="90" width="100" height="60" as="geometry" />
        </mxCell>
        <mxCell id="zeVZz8eFkJ2jSE9SBWDc-47" value="" style="shape=image;verticalLabelPosition=bottom;labelBackgroundColor=#ffffff;verticalAlign=top;aspect=fixed;imageAspect=0;image=data:image/png,iVBORw0KGgoAAAANSUhEUgAAAbsAAAHMCAYAAABMTgZnAAAgAElEQVR4nOzdTW/i2P4v+u+++r+FlBntvbnDCNcEkCqSh6B7FUTVsLtHUWjZYpZkhFz6D4/KYpRkhowKlFF3D6sQ0bnCQ0spCZi0UYYXnZldvIajfQZ+wDbmKYE8ON+PFCUxxl62wT+v31r2+se///XP/4CIiCjF/q/nLgAREdG+MdgREVHqMdgREVHqMdgREVHqMdgREVHqvcpgJ2k93GrScxeDiIheiQ2DnYKbvgYJACQNt6MO6v7f/nSlg7H/d1z4PVBwMxpivOpn2XI8ptrDrHy5fcCTNNyOemiuepvSCZYraT2Mu0rwtz+93h0uXXf4PVA6q7dzFF2OpPWWbvuqdbr7NL5dEpr9IW6UFdtKRPRG/Ndms+m4+zmErKgw7/1pEppqCbNvRZgA6kciJt9qMDdang3jvIpG0sxKB+NPwT+4GcnILVtM+RLjcnyihXahhtZG5Uig/8BsVENdNTHxp0kaPpdn+F4wASg4Ei18P91sS+EYOKuoiful3h3iY/CfArkMGOcqTEho9i9REmJvEGPba7WRP9WT16vUUIKBsyUvExG9JRsGO6B12sZRVwH8YKfUIP59gWMdcAMAkBOHGIdrEtb/B+Pd/xOctOXRELJlzYPIRuKB0Q2A0Is42cuJXMeJ/gE3CoJy1n/PwTqvugFU+YAcRORGQ8ihd03+p4GD/7cEd1NljEcyJpa18VrrXRkHgwucmABgolEpxl4f4qN9gWN1kyCr4EYRAYi4HpUWX14RgImI0mijYCdpPVyXMwCA8ZU7TVYA4BLj9wbOvgnIhWoZktbDdabn/f/fbvrwSsD3Qg0tL1iVroYYL1uh4ywvjPIBOVhorwx0S2pGHiFp3Y6Bs0of1eB9Q1y7W+oGtashbgcX+J4RMQkCrbuezDfv//9Wo9uudDBWSskBx1+tDUDpQEYbedX09pUbXBNrvtGdEan55q6GGDsGjJ+lyPGIviVccyYiehs2CnamWkVe9dNuFiAehE7GCm5GJcBxIAFBbcGx75cvcOM0pudQw+2VX2tyybGaVdJyJ/Ha37JAEqzTr1EpuBlVAQvIvZvMa0FKB+My4NjhLbWxclPXpjEP0fwkAoKI8UgOyt047GB8JUbfEEljutt6UtCj2wUNt6qBs4qO/deCiYheh42CXb07hCy6J+Hjew23V2K0ZmZZmIgCcgBMSKi+z2D2LeH0rnRwgx8LkyO1Ib2GfPzEfK/iuKB6NSU8rk1uJb+mZKFdqGKi9XAtRmtmE8tCLnMIwASkCkRhhu8Jm1rvdoC7+NRoTbB1WvS2Q194DUjYD8scChCQgXDVQb1Qw3HFW5tWRc5hux0R0UbBLjgpKx2Mr4B2oRgLNu6J+kgBWvohMkK4tuN2ZBEAyEdt5E+BGyWTkMaUg5oNADiDCxyr4dfddqiJ7q/brX3ZG6X7NqW7NSW4Af4abeQLsUghabi9+oA6dLQOBQiOE+vIkgEg40gv4gQdyEJCGlMJt226NbRepREKdNuQ0Dw6gAMb1gCQ+xomFRWm3+FFBz73NXxhGx0RvWFb1ex84RSimyo00fvbxvWRAilbRc6ZoB2kOKuwdQOOIuD7qZtai6cbo218YYfBX5JWddumlGgnmFwkaEaXm4vN60tus3Ow2PszHIC9Xp5mH5ZziSNFQvaTCOfvzjzF+clBe2BDzvTcoKUglsaM196CjcNtOQMBfnltGOc9ZK5W9ET1l6vUINoTzMQc0O/AeN9AVQJQqeJg0MSJbkLK9nDdVeb79+eUgY+I3pSNa3aTeEDyOp3cef+aag+TkYxrEZjoVe9kqs/blPyFSVkcYAa70sP4KhNaSyiw+J0rvHnvTMA03XbDufU1u+3b7HScFO4XApIbjH94NUoTjW8Wxsqlm+70e0d66VdJ681Xlz0Afjqo9oe4Djc4hoLwRC+inc1BWCivgptlbZtBeSU0Px3A0n4gU3aTyI2K6b7+foKzivtG/9jcKDra2YPknUVElGIb3nqgQPbSczeKjhPdTU1icBFKZ+q4s2TkRCsIgEmkSg6CM8F3HCTeJ+YGFu8fL00IrYdxObO4MMRrdoBfA4t33V8p3E6o1NzemEoHdb2GlqThcxkwzkPl1H9goojIWT9WtB26bZfO3z3gXULg9Wt5mHcA2t4hMj97ODGBm9DU+pHb4WUhffpJQ+7vh6yHiOh12/im8nBb1liBG6hC93y5qU4LE0sMtRvF+QGgicnyBN18mUdumrClqmgtBIN9tNkhFPjcJ73I8HpHxu7zy1kWJqKMW+0++d43qQJRsGH174H3m6w4ervERG9vUlicnLplCpt3fElYS6jmSUT0Vmx8U7nbE1KEX3OaaD2MRx/QLnSQ7V+iJPhPLnFP2td9LHa5lyoQBQvfVRPQGoAY7ZQSsAD3RnUb1tenb10K2iitNvKn92j2hxgftZH/mnVvgQjSrBpury5xi8WbvaVKDoLVw7EJNLG8/XASBDkbxnkR+XBQTezI41l1L+JS/sXGqnsliIjSZ4sOKu7JOKjhqFXkVQU3o0v3BuaKn6Nz71Wrd4e47v7v+RNUrDbwuxykPiVgdRpT+YCc1fOeKPJUvFqbY+CsMA/UjUrR64nq9gY9DjZVxXFhipvRJW7+9/wJKhPdveneTX26D6xcnsZcfFrK3Lo2u/XinYvgGDjb6CksRETp8Y9//+uf/3nuQhAREe3Tqxzih4iIaBsMdkRElHoMdkRElHoMdkRElHoMdkRElHoMdkRElHoMdkRElHoLN5X/9usvz1EOIiKinfrjz7+CvxOfoBKegfbvt19/4T4nItqheMWNaUwiIko9BjsiIko9BjsiIko9BjsiIko9BjsiIko9BjsiIko9BjsiIko9BjvanKThdtRB/bnLQUS0pcSbyhcpuBnJyG21aAvtQg0tAFA6GCviw94bImk9XJdnia9tQtJ6uM70kD/VH/Du5yKh2b9E5lsRJ8uKLWm4vRLwfdv9EjkuNozzHjJXScc5+XisKm/pZzu6nxfK6M4n/n2BY9XcptRERFvbMNgB7smwioZ3Xqp3h5DfGTirqFg4VXkntgirvVmQSXov/ECXAZCBPBpCTnrvmnWYahNG/xLjLl5ZwHuATS4wrDbyhZr3jwRJMmEW3P1S7w7x0d4+ENW780BX7w5xdLcYpP1jOdGLOE75YSCil2GLYBeidCCLAFDC9agUeckZXOC4//iChdW7Q8hoI19IPjMGNT4/gEkabq9KWAyZHkHGeBQPl9FgngpO0sXIspqiCfOR2+4HyLwXIFunbRyNemjeV9EAAIiQR0M4gwvkC6aXFn1AjZSIaEvbBzu/xhA7kfoB57tqAlJl8X1iUoBZxvJXhpuRjIPB/AQaF9QwC/GT+japNwU3o+qGZXsi8YCtDDFWAGdgYFYuJaaU3RqvF7S9adXuENdJFTxveWETPTlVOq9Vh9cTYrWRv/vgXgCJlxiXo+/PqRokDVg4JocCBMfBJKF4RES7tF2wO9RwqwDtQhEtpYPxqIN2oYNs/xIlJAWckE3TmD5Jw+1VDtZ5ESdmNPXlnpC9dkSrjXwltlxTxXEhNM+q9XhB+2RJrfHZmCqOC2oQ9GbhQKSqkVnr3SFkMR5I3F+902IQ+FwbtAEuFKWKvIrEtkG3HRSAXkN+yfLq3R6qh4shTcoeAD9/LP/MEBHtyHbB7t4PIgD0H5goMuTRJQBgoq8IdIHNOrq4AS20Lngn3GkH46BGYsPwAuFy+tIgFgSIpDbHF0Sq5CAAEJQhxkcJFwxKB/I7G86KZbjbGpsYq9ktq9VFJNTEcpl5jS9xPcGyJTQ/XS7UCif6C7vIIKJU2irYZX7vYXzln9wstAtFnHj/1bvzk+dkYETeJ2UPvL+WB59N1I/cM6kzeEQPvlBNKX/64KI8EQnV94DjALNvF7A/XeJWuw9tu4IbBWifT/AxoVNP2PJ95tX0HlFKx75fsp7wsk00KsVHrIWI6OG2us/O/lpFvlBEvlBE23I7G4z7GiQArdNi8NrJLjuoSBpuR0OMR/Nag1C+xNibFv651aR1C0NTjaUEXzBJa0D8u+e1YJpoVC5gva9597m5tWTo23fuqHeHuFHWz7dQnuwB8HO6siYcPTaXKPkxWNJw631WwuUYdx9QECKiLT2sNybc4BbcQzcaLun558plMnDsLG5Gw43v1XP+//8F4f/+F+AYaA9syGvuj6t3h/gY+jspnRZI6JwBYPt2xb1SIJdn+F64Rza4eDDRqJgId9w51gEkxPhwe1h0n0vIvtu8FJLWw/X7Cc4qU8jlzNq04/KaXWyZ5YzbK5P32BHRE9g+2EV6Cbo9//KFlW9A9p0N66uKRqhjRXA7gRdc6pqGiZocLCWtt1URg0CcUJZtO2c8G+UDDgYdtAA0w9O9/Y81qVz3AuM+4ZVDZAQbiS8Fq+gFPSs/Dy6Qr5iQtB5yjoGzNftNKC/2xgza+AT3VpXorQc13npARHu3fbDzewkC3ol3iLH/WlLtTqpAFGb4HpooaT0c3RVDvffcatbnUQ9W2u51eyi9hmMAkWpbqIfq6n3k1t5md/79bsVQ78kqcsggdzXE2L9NIWhLC/VwLUSffvK5DBjni/fsZd8BsOdTVtbs4p8P3npARE9ki2CXQSkc2JII4ZvM3Zam+u9uLSTSVb2cAZCcShSuhrhNqrVscJ+eY698+fUzoz1Ul1Jq7q0g4VqYXyN3DJwVql7AUXAzCgU9M6EDkXdf5URPCrCHyAjAbLrh1YkgIAfM783krQdE9EQe/LiwlYJHfik4Ei18PzW9yT18RtNNYS2l4KZfgQQzehJc054WbrNLem3ehmeh/dJTmJuI33RutYMLivqRiMm3GszwI8McA2eFYiyw+MHNDXrxi4z5s0jnNcOF9tDE1Kb3fEwBmO/vKWYo8dYDInoW//j3v/75n/CE3379BX/8+ddzledN4j4nItqt+HmVQ/wQEVHqMdgREVHqMdgREVHqMdgREVHqMdgREVHqMdgREVHqMdgREVHqMdgREVHqJT5B5bdff3nqcrx53OdERPuTGOz4NI+nxSeoEBHtVrwCwTQmERGlHoMdERGlHoMdERGlHoMdERGlHoMdERGlHoMdERGlHoMdERGlHoMdERGlXuJN5Unq3SHkdwbOKirMJfNIWg/XZcA4r6KxbKa1FNyMZOS2eo+FdqGGFgAoHYwV8WHvJSKiVNo42D0tOxIwVwZaScPtlRCdZrWRP9XXrybpvaHp319oEKx3h5BF+5EXFUREb8dOg52pVpFXd7lEAEoHsggAJVyPSpGXnMEFjvu7XJmEZv8SJQEArF0ueHckDR8Z6IiItvJCa3YePyXpRGt1brp0hu+qCUiVxfeJMsYjecOVWP5CcXuVg3VexFnFTce+SIcCBMzwnYGOiGhj2we7WJvYRC/iRA+/djCvdfj/6xOISgluwtCrlUDD7ZU/LbYcADjUcKsA7UIRLaWD8aiDdqGDbP8SJRg4KyxvO9w4jRlmqjguuH8mxU8iInq9tgt2QgnXR23kCzUAXg1LGeIGsUAVkUHp0wRnhSJMeO1NV0OMYbmBzJ+mdFDXQ21k9/PgA/0HJooMeXQJAJjoKwJdYLOOLgtBloiIUmfLmp2FdqjGZKpNGO8vUTpSAH1ZxLBhaPPg1LqzIIsiJqHA1vpq4ONVDlkJ8GfM/N7D+CozX2+hiBPvv3p3iLHi/j0ZGJG1SdkD7y8dJ4X0RbH6kZvWnTx3QYiIXpHt7rOzfsR6J5qY/gTwLgtp02XcO3Bgw76Pv5BB5nD+n/21inyhiHyhiLYlQh4NMe5rkAC0TovBayc77aDystW7Q8hoI7/i9g8iIlr0sjuoeFqnxfk9dKPhQoeVsFwmA8fO4mY03PhePWdwgWP15YeP1mkR6A4x7mL7Nkkiojdsu2Dn1eDmYUHBkQg4g/5+ahpSuBOL27ElX1j5BmTf2bC+qmio83sgghqRFyDqmoaJ+jprR607C/Kn+HEgIqJVtktjCiV81uYJy3pXRg42rP6eTrumimMvXZk/n0C8GmI88n68lGaEVIEozDANFUfSeji6K4ZqQm5j3+dRD82Nc68vjCBs+YQZIqK3bbuanWPAylxiPPIn7OtRWxmUroYYr5pFCN9k7t4rV/+9BAwugvK49+NlAMw7tEQWcTXE7StJYRIR0cNtHOyCdjOseESKXkNeX/E/ELmfLTotvNwtnhASPPJLwZFo4fup6U3u4TOayBdWLUTBTb8CCWYkJbiXJ8EQEdGzeYEdVLa8ZSAUPFuF8G0RVRxvsq7XdgP5vQMH0ds0iIhoNQ7x89qYKr4MgNLVK25zJCJ6Yi+wZkfrMM1KRLQd1uyIiCj1GOyIiCj1GOyIiCj1GOyIiCj1GOyIiCj1GOyIiCj1GOyIiCj1GOyIiCj1GOyIiCj1GOzoZZM03I6GuEkYtYLeCgnN/hDj7i4+BApuRkPcai/jWXuS1sP4kcON1btLhjyjCD4ujDbjDaQ7Gxg4KOdgRUalUHAzkkNj7G0xasUTmQ/3FLavIar2zd3fBwMDs3IJ0Is4SXx2evi4eNu69DjGj6HHMXBW2f9Ax8nHB5gs3bZnpHQwVsT5/0+0jx5F6WCsHMAYzFAqI/JZEIDXsQ2PxGBHW7BhT4GD8CTvC4PBBfLBuIAKbvoapBf35YkGt3p3CHnUAV5lwANm0+kGcyVdeCQcR4/zrOM7vvyLDzcoA8Z5cb5PlQ5uNelB+23hObf+xchegvwMkY+MN7SapPVw/X7X63p5mMakR5EqOQiOgS+RL7qOkxcX6Ba1TtuYQMTHF5LSopdOQvV9Bs6gGb140GscAPoVYLCjzZhTzDDDVPd+h7/bgrCY/orz2t7G3k+4Dc5tt5i/tq49ZeX8QRuf2zazXXuI1zYULDv6Xne9HdSVjvu6304S27Zo+8m8vaneDc3jtT9FpsXaXZa/dg/bsWHf+7+j275y/606jmv3Swf1JdOCdiN/3yQc551auc/hpu2WHEffqn2/ipA5XPJKQntg0jGRNNz6ZVI6QfkkrYexl1bMKeu+J+FjscE23ztwHAcT//eG25omDHa0IR0nhRpawW+X2Z/AgQg56cvn8b/EM72IfMH9ucvOA4WMZjA9r1sQypfLT5Ibzp9TPuCuUES+sKLtUMriAMBs6o9uXwO0eRnbVgalq/h2iZCPfrjzVFSYkND8Hfjil6fQxkQo4TremUKUcXTnzXNuwBFljEdDfLQv5tOEEj57J0VJ60EWLbT95WpANVikiUaliobp/16yfYmSj+NqJhqVWC1YqaEk2DDOQ8sQSrj2902hiLOBjZyyj4C3Zp9LGm4VEZPg89YEKtFCCOXL6PEI7fvlTPT+tgFRXtJZRsedFQuGhwIEAML7yjyYHgoQnAl6seNmqlW3LEBQdjeV6V5YXJdn889D4Qey4fJG9v0FDCeDkhoK4KaK44oK0/+9ZkvTiMGOHsdUcXxueAEv6YpTgVzOwBlcRNogWqr3hTNVnIRTQHoHhgMcZJeceDac3xl01pzIJTTVEgTHQFv3F12LBI7WVwMODhBdtA3ja7gxxUTjNHzy0NEe2MC7bLSmYLXn22/2YTkAwulfU8X30Ikyl8kA4StwU0VjXRuOqeK4UHxUSk0oXy6pNbvbJZQbaEoKbhQREz0eaC20T+eFNNUmDAfIHW0a7fzP0Irai7vk1fv8UICAUI0XJhpqdOdFPo/+vg8HpCVMtYqzgRfwQjV0X+vOAsQPQbnrRyIcy4ITyn7Uj0Tg53TzgJN0YQEdjfBxdgycBfveROObBQg5VJmhD7CDCj2e19Dt91KTR0N89Ds6SFkcwIbVX/HVjvduA4DMIbDsdLDB/LPE/JxbNtn/12ojfxo9Cda7Q8ixRc8ii05K/SX1ZJwht3QLTEx/AkDCCc87YbfuLMhKCdej0pP2SFzVQcVUmzDeX6J0Jbv7Ll4m60fsAsPbTm+b1p/ct+mgsmKf6z8wUWSUroYYJxzjx/I7lbifFRnjUXXeCchb95ECtHQFR6IN6/wHMlf+NAnZd8Dk2+ZlkrIHQEJNkLbDmh3tjl4L0lduDWD9W+rdIcaRlNMFDGd380eF0oKFYuwk6La3RFKHXkppJaWD8UhGzmpH0neP5u3LtpXcfvM8/CD9zNbucx0nXop7WQ1sF1qnSSnDe9h+pkHK4sCZoGe66c3ckQJIFYiChbuXdjvFG8BgRzvntuNlvMrWFDNkIFaSIp+CIzGWUsIhMsKyJW87/xaUD8ghliry2ltWqR+JsRSSl4LckfkJdZt04J4oHfdiwGtzXAi+8dStf7z+7u+0jWjjfR66+AqnFnfLa8cL0pTu/8L7CuqVHOBte+vOcvfPoQBhoQa8Zg3TGVOSO8BgR48iab2F3n9SJQcB/tVruK1nPk9d0yB5V8HhBv16N+HG5sC282/h3pkHaACA2y61zsS2o71Rlc5CGvQh6t3lHX6W2qQ35kN5nT6cQQctU8WXgY2cEitjrJOHe2wsfN9xt/y1+1zp7KkWLKHZj/fsdG9HCKdwzf4EjpDDx/eYp+/1H5gIOXz+JMKZNyYuMqeYIdYGrXcWO5xAQXNPt8xIWi+VT2Rhmx09iqlW8b07xHgUmugYOCvMOxCYahVn6OH6aoixN22iF9ECYGoGbq9kjEeyN/0CxrtLlJLXhsZW82+1IfgyyOFaGWKsAIBbgzm4Wr1kvx0raAu02jgbHOC6/LjitL46uF3TvrgPQvkS40jZbRjnPWSu3M48Z17gMtUeJmUZcl/DpOLdFe0Y+I4GxqNLv9B7uUl87T7XO7D7/nHcZTlMNCqH7i0toalO5IEK8DoglVCCgS/BZB13lgxZtGGsar+GjvagimvvOLjttSYalQs0+5e4HvmfRwvtwn4+D7lMBs7fzdT12PzHv//1z/+EJ/z26y/448+/nqs8bxL3Oe2HgptRFfYTPLqt3h1Cfpf+R06lkfsElYl37J7uM7Nv8fMq05hEROSSsjjY+GEDrwvTmESplnG74L+C507SE4s8CNq7o9NUcVx4zkLtD4MdUWrpONlTu862lo1qALywkQ2S7uH0PO9DsvfAvz/2jWCwI6JHa50WV9YaF57u/1LptcWb5SkV2GZHRESpx2BHRESpx2BHRESpx2BHRESpx2BHRESpx2BHRESpx2BHRESpx2BHRESpx2BHRK+P0sF4FB9u52Hq3eELGdJGQrO/n4FmiU9QoU15z9GbDQwclHOwzqtowJ2GZY9R8t/zkh4HFVBwM1ocC++1PhLKfRzXDMbgAKXgCfaL6t1hMPab/5guf8QC42cJJcyHElr2iK+nebxX8vGB84JHVlh41NjzPo806biGj+lr/aw/FIMdbcGGPQUO/H/9cbveVyDBXDgB+YO4ft/FiXFPgTPyhZc03F5d4hav9CTgOJjOj87y2ZJOcj+nmCbO/bwn7NdxQpbQ7F+iJFhoF8KPTVNwM+oAz/kA7thxdR/b5pZ3B2MMvypMY9IjmOj9bQNCDtWFHJACuZxxR7Z+jqI9hDcCt1CubT9KOL1Z9e4lSjBwthDUdJxwpIkXgzU72ow5xQwCpvoUGUUIxrvyR6wWKxJghq7AlQ/IIT4qs38F7P+fUGuIpIJsGOdV9Crz1IvgjSQ+T6XFlxmvDXiv/2yjDRmy6L++4XbHU1PhEcOD2mYbUGR3e71BL8PpQiCW+lM6GCsHMPQJRMUbYsV/L0LDrsTfJy1/zZzOgMwUrakAOTP1atnetmN16m9i23Bwjwnc39vsl8i+Dk/rV7x9cwH7U+j47DENuXKfxz8nSSO/J3z21g5gKmn4KNowzjfZpnWf1WTx7YqX3U9Xtv/OQS5ngtcfdFxTjDU72pB/lRq/WtVxZwHC+0qkgb9+JALOBL3ge6zgZnQJ8e8L5AtF5AtFtC0R8qgT1KLq3aEbBM6L3jxNoKK4qZdzAw7cE1i+4J/E3GWWfraDZeYLbczKl4uN/KKMozt3nlUnl1wmAzgOJn6Zj37Ml31uwBFl3GrRamxO+YC7QhH5gndyVDrBuvKFIs4GNnJKvDNFBqVPwJdgX3jjzl0J+B5MA3KKv38U3Hjto/5y77KhThV6zT0B+r+3YKpVHKtm8Hsjeg1nkVqwhOYnEbDakWXklAagzY/NRCjheh+dQdbs83nty5vnLhs9HkIJ18GxvoDhZFBS15fTTdVvMtjpFp/V+dLR7HsjwAfvuYDxTl7sUCOU8BFNdx7v+D/ouKYYgx09WuvOiqUyFRyJgPN3P7jalbQqco6BL6EvXeurAQcijhR4V8jARA9fTZtoqMtP3JJWRQ4W2pGTu44T3QLEavRk5hhor4sBSgeyCEy++VfpOk7CyzZVfLcAIXMYedtCqlavRdoVTbWHCTKIvs2Goc1rA607CwAw0ecXEu7+OUBWgjeCNDALnVVb6rrahIlGpYj8o2pSIuTREOPgZ35x4m6XCLmrQNIabjCJBVpn0AwdT+/YJKa9kwnly9C6hwsXGoGV+1xC9h2An9P5ftDVaK3NCZfdROPbFuUMLo6W2+qz6lNqKAnRzwlgoqEZcIQS5EiMtPCdAW0lpjHp8fQfmCihVKbywf1ih6/wMxlAyOB6VFp4+wwADoWtO7PkMhnA6i22idw7cCC6Jzq/COETXYhQvsS47P9nwzgvRk+CsdQhAMDJQgotepZwWZ/Uk9HJht+VVOYD2AvZJu+ErXudgZQhxp+eskfiqg4qOk70DxgrMq4TU3k2rH6slEnHZoVtOqis2ue9v22UyjLGo+pm6ckd2+qz6pGyB7HsiMecYgbgIPx52iDgvnWs2dEO6GgP7CCVWT8SAevH4hfbCqdw5j/PeVuCE0oLBmlIj6T1MI6lDtvWuiW6qafrMkLp2PYOTkReLe3cvaq/Hr2Qe8PuHTjPXYYN9rmpVufpyavhzu7RM6ezrWqq9HwY7GgnzP4EjpBDVXCtnZIAACAASURBVHJTmJO7aASb2DYgfljey9G7wj3a4n7apcv0aol3jwqiEqrvM7E2KC8dtvJtFYhCLB3rpSB3wlRxXCgiv2U6cD8kNFX3YqBtJbVxxVO389tRHnds4sXYdJ97FwyFNibIuJmIx9J/YIIMSr+v/uA+5LO6NJBKWRwk1ZppJQY72g2zD8vJQFTdton4l9fsT+B47TtzCm782onXHjbvkAEAEpqaN38kdeNNCrUZRZapiDu45cHE9CeAd9ngBC5pjUhPuuS3xcvpBoR1b1tL0nCzrL1q+ZvcJ3LsqQZY77r3ln1XTbRO3c4nnxc674SOp6Th8z5uR1m7zyU0u/uqBes48TouLe5n9z67Oh74WdU7CR1lvG2zejtMxSq4GQ1xk/IHt7DNjnbEbxfJwBk0F7+8porjwhQ3IxnjkexNdNuDgk4ap0WgO4Q8GsKdw+3+7dLRHlRx7bWxud3KdZwU7tHsX4aW6b52vIOaQ+u0jaORHLQzOoMLtK1LyCtrd347lt8WaMM4b2NyJT+udmequPt9iPHIn7Bh1/hHE0PHw2O1cWZX3c48QYea+fG5mRZx4rU9TvQfOAq9fz83ia/b5yYadzWMR8PgHTsth6niuKCi3h3G2qTD7Z0P+ay6NdH4cp3BBfK73IdSFge7evjDC/aPf//rn/8JT/jt11/wx59/PVd53iTuc3oq9e4QH+0neCrJi35U3FvnPUHlb/dzIGk9XGd6W9+y8tLFz6tMYxIRvWG5TAbOYjfg1GEak+iNESKp4OcuDT2lyIOgvWmt0+KbeKQZgx3RG/JiTmxJ9y/6kh7l9WyWjL4AvOwRGJZwHwT93KV4Hgx2RLR7XqeNB7/+Yug4KbyUwEuPwTY7IiJKPQY7IiJKPQY7IiJKPQY7IiJKPQY7IiJKPQY7IiJKPQY7IiJKPQY7IiJKPQY7IiJKPT5BhTbjP8V+YOCgnIN1XkUDKx75BLzKxykBAJQOxooYm/hUQ+rsmvuE+9JPA8a7UvCk+0Xhx2JZaOuA7O+DF/X4LqKHYc2OtmDDnob+9UfNLvijP3tjbfnTdhTo6t39DUC6nA3jvBhsy9kAKF310HzWkcEfzokcuGX8ba6hpdeQLxTRtvZeNKInwWBHtAFTbbqjRv+e8uGciVKKwY42Y04xwwxT3fu9bZVN6WA8GgY/t5oUmR78H5n2P3AzGkIWAQglXI/mNbx6d4hxV0lYx7z2JWk9jEcd1P11h2qH7mvz8txsHcMkNPvD0DKitb7l61ZwMwq/r4N6fJldxd0+fx5vOyPTYjXd6PaEl2li+hOYTXXvt+m/Abfx/U6UYgx2tCEdJ4UaWsHvzUlaD2MFaPvpzXMDKF+6J1q9hrOBDaFc807QEpqfRMBq41j9b5z4qTTHwNmDUqMi5KMfkbRqvTvE9fuJu7xCEXndQk5ZF/AOkREQDHIpaTVAm6c521YGpatwkFm27g+4C1K/FzAcEXI8RSvKOLqb7ytHlDEeuSOMB9OEEj6HLhiuywilXX8gGwpirVN33Dr/N9FbxGBHe6ZALmcw0UMB0lTx3QKE9xVIAEy1hwlEyF0FktZACQbOdtYhwobxNbQsScNH0YahhYKm3oHhALmj5dGu3pWRg4XvXucOU61FOqu0vhpwcIBsJGrF1g2gdRq+UDDR+GYBghAdL81qz4OS2YflAHAMfPE7lvj7L3PoblL2AIjUtnU0EjuhhHjtrcmdVYjSh70xab+kLA4ACMoQ43gs8YdKho4T/QPGioxr0YZxvssenLGU66EAARkIV0OM47P+DP+TQSk8j2PgrBAtV73rpVjDazsE5jMlpXu93pGRLqy2GyQTN9pNQwLTxZffZd2Lhf4ETrkEeTTEx8Gy3pZEbxuDHT2BDbrt3ztwIC6/jWGnLLTXpmJXldnvph9ajndrxkr+6NzhwKl0MFYOHrQVAW8gVEnr4bp8iXHZ7RXLoEc0xzQm7Zc5xQwZiJVVHSEkNNUSMLhw277UDW8z8Go2W/GC6oqM5XrKB+RgwzgPBcxDYW2glio5CLDQDrU7uinI3TDVanC7gJ8iJiIXgx3tmY47CxDKjYXein6HkHr3EiXBbQ9rnbYxCXe+ADCx7YV2rdadBQglyEHQUnCzcCN4Aq8NLKdEO5PUu1vcQ3fvwEEGXpPZxus2pzMg3K4nafhczmy40uUkrbP9/X/sjUlvDIMd7V3r1L8pe951/jOaONHdoCeLCHVg0dEe2BDKl0EwDDqwhLvc6zW0LSCn+Mv8gDt9kzugTTQqRbQtb3nez9HdFk9HMVV8GdjRdZ8b8ybIZfSa12vTe58KfNmozOuK8wOZ0L6V373SJ9cQ7dE//v2vf/4nPOG3X3/BH3/+9VzleZO4z+n5KbgZVWHH2inr3SFk8HFh9PrEz6us2RERUeqxNyYRefzbLeIPgn7eUhHtAoMdEcF9Qk7sBnhmLilFmMYkIqLUY7AjIqLUY7AjIqLUY7AjIqLUY7AjIqLUY7AjIqLUY7AjIqLUY7AjIqLUY7AjIqLUY7AjIqLUY7AjIqLUY7B7NSQ0+0OMR9FBR4mIaD0Gu1cjNOhoV1k/OxERBRjsXpmJbT93EYiIXh0GOyIiSj0GOyIiSj0Gu1fGnM4A8QM7qRARbYHB7rXRa8jrgMxemUREG2Owe22UDsYK0C7U0HrushARvRIMdq+MlD0ArB8MdEREW2CwIyKi1GOwIyKi1GOwIyKi1GOwe1UkVN9n4Nj3z10QIqJX5b+euwC0KQnN/iVKMHCmms9dGCKiV4XB7tVwHwRNRETbYxqTiIhSj8GOiIhSj8GOiIhSj8GOiIhSj8GOiIhSL7E35m+//vLU5XjzuM+JiPYnMdj98edfT12ON+23X3/hPici2qF4BYJpTCIiSj0GOyIiSj0GOyIiSj0GOyIiSj0GOyIiSj0GOyIiSj0GOyIiSj0GOyIiSr2Nx7Ord4eQ3xk4q6hYNnSopPVwXQaM8yoaDx5fVMHNSEZuq/dYaBdqaAGA0sFYER/2XiIiSqUXOnirHQmYKwOtpOH2SohOs9rIn+rrVxN7b707hByOk5suZ6+84O+svtAgIqLldhrsTLWKvLrLJQJQOl4AKuF6VIq85AwucNzf4XrQRr7gBzc3yIy7eNaAJ2lVBjoiokd6oTU7j5+SjJ3s3XTpDN9VE5Aqi+8TZYxH8oYrsdxfeg35SEzT0R5UcV3+gDr0Z0tz5jIZ4GePgY6I6BG2D3axNrGJXsSJHn7tYJ6C9P/XJxCVEtyEoZeihIbbK39abDkAcKjhVgHahSJaSgfjUQftQgfZ/iVKMHBWWFHTeRHpRyIieim2C3ZCCddHbeQLNQBeDUsZ4gaxQBWRQenTBGeFIkx47WJXQ4xhuYHMn6Z0UNdDHUXuVRwXvL/1H5goMuTRJQBgom+S0tuso8tCkA1IqL7PAFaPnVeIiF65LWt2FtqhGpOpNmG8v0TpSAH0ZdHOhqHNg1PrzoIsipiEAlvrq4GPVzlkJcCfMfN7D+OrzHy9hSJOvP/q3SHGivv3ZGBE1iZlD7y/dJwUHlq7k9DsX6Ik2DC056whKjgSAWdw/4xlICJ6/bYLdtaPWC3HxPQngHdZhOLUavcOHBzAXjh/Z5A5nC/E/lrFSbg35mgI2Wu7a50W5+WQNNyWt9qK1YI07XPfkuDWTKEXccyMLBHRo7zsDiqeILgpHYxHw4UOK2G5TAaOncXNaLjxvXrO4ALHqul1fMm8kDY/HScF4Ga0Lk1MRETrbBfsFmpwfpqtv5/eglK4E4vbsSVfWPkGZN/ZsL6qaKjzeyDq3aF7W4EXwOqahokaC5ZKB9flzIo2vOeg486S8TG7cb2ZiIgSbPe4MKGEz5oU/FvvysjBhtXf04nYVHFcKCJfKCJ/PoF4NcR45P30NUjx+aUKRGGGaag4ktbD0V0xVFNzG/s+j3pohhZQPxIBq/2CAt2ckDl87iIQEb1q29XsHANW5hLjkT9hX+1aGZSuhhivmkUI32Tu3itX/70EDC6C8gRpScw7tEQWcTXE7eACxyqQfQdASL4/72XV9oiIaFsbB7t5p5AVj0iJ35i9cKM2vNpa0rTwcu3Nn68ZPPJLwZFo4fup6U3u4TOayBdWLUTBTb8CCSoaleIGKyMiotfoBXZQ2fKWgVDwbBXCt0VUcbzJuhIewPKSTGwbeL9Fb1ciIlrAIX5eOFNtwkAJ10ltlEREtJEXWLOjKJMpViKiR2LNjoiIUo/BjoiIUo/BjoiIUo/BjoiIUo/BjoiIUo/BjoiIUo/BjoiIUo/BjoiIUo/BjoiIUo/Bjl42ScPtaIibhFEr6G2pd4cYjzqob/OmvX1+JDT7S4YaW1mc3vbbQDvBx4XRZryBdGcDAwflHKzIqBQKbkZyaGT4LUateCLz4Z7C9jVE1b65+/tgYGBWLgFLh6AKHxdvW5cex/gx9DgGzioqH0L+AtS7Q8jvDBg/Syj5g1ErHYwV0Z3BaofG7aQ4Bjvagg17ChyEJ3knTwwukFf9U6KCm74G6cWdJKPBrd4dQh51gFcZ8IDZdLrBXEkXHgnH0eMMLnCsvqyj5psPM/YS7POZtf7FTMKx+DlF5Kh7w6jVu0MsjsRJYUxj0qNIlRwEx8CXyJdSx8mLC3SLWqdtTCDio8bxJJ6XmxK8jR8HScPts6f8FNwwjZ4KDHa0GXOKGWaY6t7vcCQThMX0V5zXdjL2fsInD7cdY/7awklvYVEr5g/aaNyT1HjUQ3PjWOa1wwTLjr43aG9ROu7rfntNbNui7TjeMruK1+bk/XTdHRCZFmv/Wf7aPWzHhn3v/45u+8r9t+o4rt0v4cATnVbvemX0903CcX6spPau+GfBP+6L640d2+7jCxZsc3xa+POjaLhN+gwu+z4oHYy9dLJQvox8vie2Dce+D37TdhjsaEM6Tgo1tILfLrM/gQMR8oorcEnrYXxVwkwvIl9wf+6y80AhoxlMz+sWhPLl8pPkhvPnlA+4KxSRL6xoO5SyOAAwm/qj29cAbV7GtpVB6Sq+XSLkox/uPBUVJiQ0fwe++OUptDERSriOn0xFGUd33jznBhxRxng0xEf7Yj5NKOGzd2KTtB5k0ULbX64GVINFmmhUqmiY/u8l25co+TiuZqJRidWClRpKgg3jPLQMoYRrf98Uijgb2Mgp+6sVue2wgHHu7/sL2J8S2h0B5JTG/NjqFiDKOy9XvTuMHrNCDxmlBGFhThGyOv/MtC0gp3ifM73mfobgppTzhWKQyjTVKo5VM/hN22Gwo8cxVRyfG17AS+otp0AuZ+AMLiKdKFqql+Y0VZyEv7h6B4YDHGSX1E42nN8ZdNacyCU01RIEx0Bb9xddiwSO1lcDDg4QXbQN42u4E4CJxmk4ZaujPbCBd9loLz2rPd9+sw/LARBO/5oqvluAkDkEAOQyGcBxMAltd2Nd3wNTxXHo5PgQfm1isdbsbpdQbqApKbhRREz0eKC10A51kDDVJgwHyB3tI9r5n6tmqAwmGpoBJ2HuSFm9z8xOyyVp+CgCEz18AaHjRLcSZrbQDqX53c+ZiL3sJgqwgwo9nqniuKAGPcPk0RAf/cZ1KYsD2LD6K07A4R5lvswhsKzVb4P5Z4n5ObdsQUN+Qu819+o8+q5ZZNFJqb+knowz5JZugYnpTwCYLr7uBcnWnQVZKeF6VMJkaW/L3VvVQcVUmzDeX6J0Jbv7Ll4m60fsAsPbTm+b1oVgoXyJcTk+NSlYYPnnypxitmY9e3EoQICF7/F9cu/ASewKRE+NNTvaHb0WpK/cGsD6t9S7Q4wVERN9nooyki7NHzh/VDjFVIwFOretJ5KGOk+uJUT4bSxWO5K+ezRvX7oprt23fz2MH6T3w0/b5bfZ/0QbYrCjnXPb8TJeZWuKGTIQK0mRT8GRiFiK8xCZxUaOB86/BeUDcoi1QR0KCe0tUfUj0b0XLRQ4c5n4/XwP1zqdB/T9pAO3oHTciwGvzXEh+MZTt/7x+ru/p5653mcsssoP6ztL7U085e31Vn6ewlAMgx09iqT1Fnr/uV9wC3c6EG3rmc9T1zRIuIftzNupAKDeTe5g4Np2/i3cO/MADQBw26XWmdh2tDeq0llIgz5EvfuALveb9MZ8KEnDrSK6baGmii8De96pwhfqYAP4x8bC9310pvDaOHNKuKfjZsdsL/QODCfWoUnS8HnhQQabWPycb2fJrRxvHNvs6FFMtYrv3SHGo9BEx8BZYd4Ab6pVnKGH66shxt60ie7eIGxqBm6vZIxHsjf9Asa7S5SS14bGVvNvtSH4MsjhWhlirACAW4M5uFq9ZL8dK2gLtNo4GxzgeqHtaTutrw5u17Qv7sNiu5kN47yHzJXbmecs6BnYw6QsQ+5rmFRUd1bHwHc0MB5d+oXe6xNqWqdFoDuEHHyuLLQLbWC0+9urc8Hnwl9PLTaHiUblAs1+6LPgGDg7N/D5atvLMRONbxbGivs53/5G/0NkhDXt5G/QP/79r3/+Jzzht19/wR9//vVc5XmTuM9pPxTcjKqwn+DRbf6jrJ790WL+49CesFPPSkoHY+Vg74/Pc5+gEnqE2Cfn+Y/FM4ufV5nGJKL0OBQgIHSj/TOTsgdI7sG753X+TOjp+8YxjUmUahmUroYYv9qHXi9X7w5xdBeqwXntirDaG9eikh8Q7ttmn0lo9huAFqrBKR1ce/cC7m2/Rx4E7f4y1Sry+1rfK8ZgR5RaOk4KLyGXtzqoPPQ+wtbpBbL9cFuad/vCFu1bplpFXt1+3QlLQqNy6D6iLjR17/dIeg+CpvUY7Ijo0daNSLC7oBJZ6h5HHniIl3NxQYvYZkdERKnHYEdERKnHYEdERKnHYEdERKnHYEdERKnHYEdERKnHYEdERKnHYEdERKnHYEdERKnHYEdEr9ODxu9zx3obd3c/EK6k9TAe9SLjNq6n4GZfYxDuxP7211Pj48JoM/7QKQMDB+UcrPMqGnCnYdl4Wy9tuJUIBTejxYFftx877GVwnz05gzE4QOn9ZOnwLvXuMBhc1n9uoz88j/GzhBLm4+Yte57l3p/3SLsTflA0gH2PMbhO4mct8jDr/Y3byJodbcGGPQ39a/ZhOYDwvoKk69LoiOWP5F3F3+z4AtMZXCBfKLo/5wZQvnzBV9lrOA6m6+cKtjkSsH5Ol7zXQtvfP97Piwl0porjQvHFXJyYahX5wn7Grat3hxj3tcTvWTKvRqYgdvx+4GgUG2H+qcU/a3oN+UIRbWu/q2Wwo0cw0fvbBoQcqgvfQgVyOQNn0Hk9w8qYKr4MbAjl2vOeDMi92k84Kde7z5/yq3dfflqv3r1ECQbOFmpxOk5SNtTTphjsaDPmFDPMMNW9397Vq6n2MEEGYiV2AlI+IAcbVj98metdbY78n4QrTKUTet1t/5C0HsZXJQgAcor72ryGF19m/GQ4b3Ood5NeXyNSnthJLqhtuu0u4fYaf13+T6RGqnTceRX3/eFt9ZeZ+L4Vr5nTGfBzipb32wxv+5oawcS24dj3we9t9ktkX4anBfsmdny2qp2sLURCe5d/LObrq2u9xPW6bWwrPotbF6ez2GYXO2bB5zAhWEY+M0F53e2RRQBCCdeb7ENJw0fRhqFtMlL5uu/PslX0ot+LWJnc1zuo+98f7/UHfdZ2hMGONuRfEcavDHXcWYupzPqRCDgT9IJvm4Kb0SXEv+dpw7YlQg6dZOrdIcbKAYxzP+XSBCqKmx46N+DAbS+ap9LcZZZ+tkNpmjZm5cvFk4ko4+jOnWdV2iuXyQCOg4lf5qMfkTSnI8oLJ4Oc8gF3heI8haV0gnXlC0WcDWzklHjHhQxKn4Avwb7wBlm9EvA9mAbkFH//KLjx2kf95d5lQycYvea2dfi/t2CqVRyrZvB7I3oNZ5FasITmJ3fg1PAyckoD0ObHZiKUcL3TgBfmtcNaoc/DNwFy0jh6oozPaM7LBRHyrmtr0rxNO/gs2NWgzTRMKF/OPzPnBhyhhM+aBPd756X4HANnhSLyS9pjg9VWchA2Gh19i+9PSL07xHV5FkmPtn+WcL1wwSBC9r8/Xpkf9FnbEQY7erTWnRVLZSo4EgHn737wpZS0KnKOgS+hD3jrqwEHIo4UeFejwEQPt3mYaKjLT9ySVkUOFtqRk7uOE90CxGo0uDgG2utigNKBLAKTb/7JRMdJeNmmiu8WIGQOI29bSNXqtUi7ll/7jb4teuXdunMbLCb6/ELC3T8HyEoApCwOAMxCZ7CWuu7K3R3vbd3JcTURcvgKPnRCc7fLDRKS1nDTZrFA6wyaoePpHZvEtPfjJX4e9FpyW1AkKOtoD2xA/LDT9HX99xKE2GfeVJswnMV5ncHF/DPjf86WtIVvJLhgW26r78/8Td73NJoKbZ26FwwfIxeCNoyvL6WBl70xaRf0H5gospvKNE0vhWmhHb7Cz2QAIYPrUWnh7TMAOBQgwML3Lb4buUwGsHqL7Q/3DhyIbnDxixCk9qKE8iXGZf8/G8Z5MdrBwLs6F8JvcrKQQoueJVxCJ/VkdLLhdyWV+QCLmR0vSOp9WE4JJWWI8SdjaW/L3VvVe0/Hif4BY0XGtWjDOI+XKZ7GRvKxWcoNtHJsqmMnz73s8zCxbeDdunXtmoTsu+gFn8vE9OdTlyXZVt8f39Lv6T1sB8hF3rRJ7fLpMNjRDuhoD6q4fl+BBBO5IzedtfAlWtWt+Jna+1fdauAHLGdwgbw3j9t1etUSJTT7lygJ4cDpptcOHlVSb1RuL/hej0puWuvJgt4S3olRWD/nAywG2np3iI97WVd6mNMZUHZrz+YLCjbPjWlM2gmzP4Ej5FCV3BTmJHa/wcRekybyTppHWwS9pcv0rj4fd8uDhOr7TCzd5V6tr35bBaIQS8d6Kcid8Lrb5/eYDtychKbqtkm1rQxKarwtLp663fHtKEneZWNl8I7jM4mnvP0U/17pPzBBBqXfV3+ZHvT9Wfo9PURGWPzevyQMdrQbZh+Wk4Gouu0A8c+82Z/AWegEoODG76zgtVPMO2QAgISm5s1vTjEDcJCdn8rCbUaRZSriDm558NJNoZOnpDVQWleFWSinGxAeXfORNNxs3eV+s96YD1XvXqIkWPiumm6bTdCpYi5yPCUNn/d4O0rrq9ux4zr0edjomO2FicY3C4h1aKp3Fx9ksImJbQOCsOF7dZx4nakWj72CG6/d9UHfn8Tvqbddm7SLb8z97O7yNhOmMWlH3HvuSuUMnEFz8YtiqjguTHEzkjEe+a0wbpoq6KRxWgS6w1A7jQ3jvOq96qVKvTY29ykeOk4K92j2L0PLdF873sGXrnXaxtFIDtoZncEF2tblmjSm347ltwXaMM7bmFw9Mo1pqrj7fYjxyJ/g7pt93MAcldBuZrWDXoXzjgrz43MzLeLEa3uc6D9wFHr/Xp9QY6o4Pgdur+afMWdwgbNBA9fvd7wuUV74zJ3E59FryKMT+iy487Wx2A65jqn2MCnL7rHYJH1tqjguqG7PyUg7eTg1/LDvT+u0iInWw3X4c2G1ka/sslZ3iIyQ0Ob7CP/497/++Z/whN9+/QV//PnXzlZA63Gf01Opd4f4aD/BI9Fe0KPi/EdUPXv7JoCgTffn/h6L9VrVu0PI4UeIfXIedczi51WmMYkoxbx21iW9cZ+e27b11DdUvzZS9mDnx4xpTKI3Roikgp+7NDskabhVgS+h2oDbrmjD0Dbc0KRbTUK22mdKB+OjH6EanIRmX164LefNizwI2v1lqlXkd7waBjuiN6R1WnwZz0VcFVQe+uR7U8XxN/fxVKGFbfeUf6+tayf0Gs6yvUh7mPsUlMemU/3bW5Jee95RDR5EryH/BBddbLN7AbjPiYh2i212RET05jDYERFR6jHYERFR6jHYERFR6jHYERFR6jHYERFR6jHYERFR6jHYERFR6jHYERFR6vFxYbQZ/yn2AwMH5Rys8yoaWP0cwRcxkvZDhJ/VF3iqIXV2zX/KvgHjXQni38tGPHBHU3fHS7PQ1gE5eF4hn9BPrx9rdrQFG/Y09K8/anahiHyhjQnc8cPy/rQdBbp6d38DkC5nwzgvBttyNgBKVz00n3Vk8IdzIgduGX+ba2jpNeQLRbStvReN6Ekw2BFtwFSbMJwMSr8r62cmoheHwY42Y04xwwxT3fu9bZVNcZ9G7//calJkevB/ZNr/wM1oCFkEIJRwPZrX8OrdIcZdJWEd89qXpPUwHnVQ99cdqh26r83Lc7N1DJPQ7A9Dy4jW+pavW8HNKPy+DurxZXYVd/v8ebztjEyL1XSj2xNeponpT2A21b3fpv8G3Mb3O1GKMdjRhnScFGpoBb83J2k9jBWg7ac3zw2gfOmeaPUazgY2hHLNO0FLaH4SAauNY/W/ceKn0hwDZw9KjYqQj35E0qr17hDX7yfu8gpF5HULOWVdwIsOuilpNUCbpznbVgalq3CQWbbuD7gLUr8XMBwRcjxFK8o4upvvK0eUMR65I4wH04QSPocuGK7LCKVdfyAbCmKtU3cMNv830VvEYEd7pkAuZzDRQwHSVPHdAoT3FUgATLWHCUTIXQWS1kAJBs521iHChvE1tCxJw0fRhqGFgqbegeEAuaPl0a7edQfd/O517jDVWqSzSuurAQcHyEaiVmzdAFqn4QsFE41vFiAIXscQj9WeByWzD8sB4Bj44ncs8fdf5tDdpOwBEKlt62isGxzUa29N7qxClD7sjUn7JWVxAEBQhhjHY4nj/6HjRP+AsSLjWrRhnO+yB2cs5XooQEAGwtUQ4/isP8P/ZFAKz5Mw6Ga966VYw2s7BOYzJaV7kwbetN0gmbjRbhoSmC6+/C7rXiz0J3DKJcijIT4OlvW2JHrbGOzoCWzQbf/egQNx+W0MO7XJaM6ryux30w8tx7s1YyV/dO5w4FQ6GCsHD9qKgDe6tqT1cF2+xLjs9opl0COaYxqT9sucYoYMxMqqIYcoHwAAFsZJREFUjhASmmoJGFy4bV/qhrcZeDWbrXhBdUXGcj3lA3KwYZyHAuahsDZQS5UcBFhoh9od3RTkbphqNbhdwE8RE5GLwY72TMedBQjlxkJvRb9DSL17iZLgtoe1TtuYhDtfAJjY9kK7VuvOAoQS5CBoKbhZuBE8gdcGllOinUnq3S3uobt34CADr8ls43Wb0xkQbteTNHwuZzZc6XKS1tn+/j/2xqQ3hsGO9q516t+UPe86/xlNnOhu0JNFhDqw6GgPbAjlyyAYBh1Ywl3u9RraFpBT/GV+wJ2+yR3QJhqVItqWtzzv5+hui6ejmCq+DOzous+NeRPkMnrN67XpvU8FvmxU5nXF+YFMaN/K717pk2uI9ugf//7XP/8TnvDbr7/gjz//eq7yvEnc5/T8FNyMqrBj7ZT17hAy+Lgwen3i51XW7IiIKPXYG5OIPP7tFvEHQT9vqYh2gcGOiOA+ISd2Azwzl5QiTGMSEVHqMdgREVHqMdgREVHqMdgREVHqMdgREVHqMdgREVHqMdgREVHqMdgREVHqMdgREVHqMdgREVHqMdi9GhKa/SHGo+g4bEREtB6D3asRGoet+5hhtomI3h4Gu1dmYtvPXQQioleHwY6IiFKPwY6IiFKPwe6VMaczQPzATipERFtgsHtt9BryOiCzVyYR0cYY7F4bpYOxArQLNbSeuyxERK8Eg90rI2UPAOsHAx0R0RYY7IiIKPUY7IiIKPUY7IiIKPUY7F4VCdX3GTj2/XMXhIjoVfmv5y4AbUpCs3+JEgycqeZzF4aI6FVhsHs13AdBExHR9pjGJCKi1GOwIyKi1GOwIyKi1GOwIyKi1GOwIyKi1GOwIyKi1Eu89eC3X3956nK8edznRET7kxjs/vjzr6cux5v226+/cJ8TEe1QvALBNCYREaUegx0REaUegx0REaUegx0REaUegx0REaUegx0REaUegx0REaUegx0REaXedoO3ShpurwR8L9TQSpxBwc2oCvu8isbCYNruSNuZb0Wc6OG3dDD+5OCsoiL+lnp3CFncqoSY6P7yFdyMZOQe9F4iIkqTpxupXKmhJFho6xKa/QagJQXERc7gAseqN6PSwVg5gLEqmEamWWgvDczr3vtSeEHbMRIvCIiIaL3Ngp3SwViZV7Hk0RDyitlzV0OMEQ5UEpqfREz0IlqQ0Fx4hwC5P8S14P1rtZE/jVexFNx4ZSh5yw84Bs4q/Y025bWRtCoDHRHRI20W7PQa8joensZUaijBwFkQvzKxgGXDPi/ixAQkrYfPuE9Yrowc7GitTtJwe1XC7JsKExKqC+UR1wbmsMmG8z2lXCYD/Owx0BERPcID0pjrAogNO/K/VyNznFANMRS0vDa7nnc2z2UyiC7gEM2+DOhF5HUFN6MhbvQi2tkersuAcV5ckQ7dNI1JRERp9oBgtyqAuDW7OQnNvowDx4teeg15v81uY/doVIre3zruLBmyMsQ1AFjtjdr9Nurokpg6JSKiNNhzze4QmZ9tHN99wPjTJsuWkH2HaM0uU8Pt6BJ+c95ELyJ/6v2jdDAeeSWxDBiRRWVx4P3ZOi2+0tqdgiMRcAbxtC4REW1jzzU7HSenAJQPa5da7Q5xLXrLV0PVNbuD49Nwb8whxoqXBvXbEgG4tcjS9pvzYrntlNCLOGaFk4joUTYKdvE04Ka9MbFFL8LeaRFrk5tBcHPb7sbxDithhwIEx0G2O8R403v1XlSvRx0nBbhtlOD9f0REj7FRsHvqNKCk9XCd6aE9n4Jm/xIlL5fpDC5wXCguebf3juwBnL87aKjqfKLSwVjBvGaqaGjeqxu1+z0Pt43yY1YCXkgIJiJ6jR70uDBJ62Hc1yDNp6DZH8ambUivIR+rTeUyGTh2uJ3KRKNSRL5QRL5wAev9JcajoffTQ3NhpRKq7zOYTUNLlTTcHv1APpSCrQOAOsSttnWpn5SQOXzuIhARvWpbtNnNa1fO4AL5SrSm0dOKaEDD7WgIYVV6EQCQQeYQSyorCo5EG9ZXE/gdEMqXGJdXlSt6z94EWLyvz7sfTwDmHVrCypcYv39JKUwiItqlLdrsbBjnReQTo4EJ0wQAFccFFUFN72dSd34TjW+W19EkeX3O4AInJlD/Pfa4sJXmj/yqH4mYfKu5gUvScKsCXwrFlYGs3u2hKsHbDiIiSpN//Ptf//xPeMJvv/6CP/7867nK8yat2ueS1sP1+wlrnUREW4ifVznEzwtnqk0YKOH6Ie2hREQE4ClHPaAHMkNPkCEioodgzY6IiFKPwY6IiFKPwY6IiFKPwY6IiFKPwY6IiFKPwY6IiFKPwY6IiFKPwY6IiFKPwY6IiFKPwY5eNskdSeNmyUPDiYg2wceF0Wa8YZJmAwMH5RysyBBOCm5GMnLBzOuGeHp6ktbDdTkTm2rNB/J9Vdz9fTAwMCuXAH3ZSPbh42KhrQOyIrovWUkjkhClF2t2tAUb9jQ2SdJwO5JxMLjwBtctIl/oIaO+xAdXW2gHZSyibYmQRx13EN9XaDaNH4wk3tBchRpaes3b7r0XjejFYbCjR5EqOQiOgS+RMQd1nLyCIYlap21MIOLjCx+pnogej8GONmNOMcMMU937HY5kghBKYS7htb2NvZ9wG5yk9YLp49EQt2uCz8r5gzY+BTejIcajHpobxzJv0OFg2dH3uuvtoK503Nf9YZdi2zaODMfkLbOroN4NzdN1d0BkWmwYp+Wv3cN2bNj3/u/otq/bf0RvEYMdbUjHSaGGVvDbZfYncLA6HShpPYyvSpjp8xTiXXYeKGQ05ylQ3YJQvlzeIWXD+XPKB9wVisgXVrQdSlkcAJh5kVvSaoAWTnNmULqKb5cI+eiHO09FhQkJzd+BL0F6tI2JUMJ1N1YgUcbRnTfPuQFHlDEeDfHRvphPE0r47AUqSetBFkNpVw2oBos00ahU0TD930u2j4gCDHb0OKaK43PDC3hDt+YTmUGBXM7AGVxEOlG0VC/Naao4CadA9Q4MBzjILqmdbDi/M+is6XgioamWIDgG2rq/6FokcLS+GnBwgOiibRhfwx07TDROwylbHe2BDbzLRtssrfZ8+80+LAdAOP1rqvhuAULmEACQy2QAx8EktN2Ndf1JTBXHhSKOVUY/ojj2xqTHM1UcF1RA6WCsuEHv4+DCPelKWRzAhtVfcQL23heROQSWtfptMP9smvRet2yy/29Cj8R6dwg5tuhZZNGxFK5boFhvVHe+3NItMDH9CQDTxde9INm6syArJVyPSpgs7W1JRJtizY52x+vtdzawIZQbG7WV1btDjBURkyDFeQHj/7R3/zyNY30bx78r3W+BcardpUXxNAQJJJdJM4jdcncrNNyKlQ6mQlk95a2JqIAucrREVLtb7iCmiUtLjJSkWUfTprWHF7FPYTtxTAIJf4aNuT4SyuD4z7FHyoV/5zgnfLz1J02OxpwMuqiPb6J0eOBy567tM/q9KkW/NdrvfieYt0GzpUZOFu2b/ZwishiFnTy6qB+vEN9sDbmmgLk9LflstkwyJc41CsasPS+6/gLsTYoEuAep5+7WDO7adW3LhNBlPxWcxUL2eb77a74dB3pxS2kncl8KO3kQq3FxY/SftV3EwOfKgaQPK3unV2s0sPhMEI77qQBq7Ww5MG3R9RfwORwHNAA259lS6RSDIJgcjWqf3SiD3ketfY/n/+45GrPWHo8OFckr9dnJg3j1HT60u/R7qYWhy35pPGjDq++wzwWnJ1368bKBs0ET8BouH0+q9HvVePk73FfHlKcfjcOF1l/oRHjfKXJqd+nbAD6tA5eVk9v37NWPcF8fj/sC/Rb7nRVOKw9rTvO3kI939C8+DovVVzD4S52Ckm/ffP/dt/+kF/zy80/8/sefz9WeF0nXXJ6GzXlvhyDz1W21dpcqcXhaDT6eGHxYyq9NE5kt+7mqMqbIS7ZmYKQfcRDJKZUxRXKtQPmkS//GF0HHbzt7rKuCKS+Awk4ktxx2S5NJ1lSwyQulMqaIiOSewk5ERHJPYSciIrmnsBMRkdxT2ImISO4p7EREJPcUdiIiknsKOxERyT2FnYiI5J7CTkREck9hJ/OJ50o7bzT42LuI5qa7a/60ZJt/5VRp0czk/czPonPB/VtYjQv6vTOOGhf0LxvMOotae3yu57bF0WXy+8VcM8uLLCuFnSwgIBimfvUu8UMwXm9P/XCdnMT1gZ4oOMPOO9ZLG9HPgQuV46UNPMKQ4d1rjc551/E43I7OO3zyxok8L4WdPIDHxd8BGEV2buSDTbVSIOycLc88aV6d950Ao7K3+CzhIvKvprCT+XhDrrlm6MSv8WSgXv2CAQXM7Uza2ZsUCfAvU7OGki6bden3zm6Gin2Wej8qrVmNC/onZQygaCcluFn7zJYi4/fb9qiEt9Cd20R7ov2Md53cbSYl0XEpMF0u7GfvSO2zaF072n6ijGill2W2u+U9b3gNX4Y041cvfe63lDVFXgqFnczJYbe0R3P0Ol5+5d8sZda2TAgHXIyyzua8d4z597hs2PJNqqnAq7W79O0V3IO4rFg6gm0br74zKrUNnI24BDfeZ/lLa1yKLLW4rhxPhhKAWWXrKlrnTd1jlmKhAKPJTG3Otz5NlDlDs3ojLIv2JlelDdZL8Yzg9tnoWOulDfY7AUU72ydWoPwjvB9di3jeuRODD6NlULST62NzflKGVNn1ajUVYs5eNPN48ioiExR28mDNKz9TyrTZMiH8+5IkVqzGDsXQ5X0qaJq/uYSYbNmA1eAHEwZOHBgAeBzWZ39wW40divi0Jj7cHXYdH8ydyXAJXVp3ZYB9RtWEwV/1uN0Ou+l9e3U++GAU1iY2u1GqdfbiME42i+5+JzcLcBv10fVpXkWzqQ6c8R8S0fVZYdUCrFVWgOth6vrVx9tPF/fJbd+1nkj+afJWeTjnEwO7GpUyPS8uYfq0UsFWLBTAKHDaK9/Y/BpgzcDA58MCNyXFQgH8i5t9gp9DQswoXJImjEp7k4zKMf1K8luAe7CRClui0mFcQh0JV7FSu04H0HizC04rBSY3S281rc0rBJ+zb8Qh6Vzih2XKdpf+jy77CjCRhSjs5BE4tDo7nL7exsKjuGWC37oZQn5rdontmR5PCDvvZpY1k8AKO+9Yj9eptbtUX922R4ujy2PKRjo4bc57VVYe1NLoLi0J39NeGUKFnsi8VMaUR+FdDgiNIjtWVMIcZJ43GAQBmJuzRznGd2NbC4TezH3Gd4kPe+TBYud1AfxWKgwtVm8NOsDaxjQy5di4BPkovDpvShusO9nSsYjcRmEnj8O7xA8LmPWoHy0bNN7lgBCT6sTAEZvzZKRg3B82HpABYHHUiNf3hlwDK6vjT/eoL2zKPm3zER558Bh+AV6tjgaBWI1DysZt20xrp8VRPVMGvQ+rwfnCz//dczSmfTZ9pKzIElMZUx5J9MxduVIg7BzdDBqvzpvSkPNelX6vGi/0aZX2xoM03m5Au0u11yVaI8A92InfjUulcR/bwNlg13HYLX3m6PI4tc/ovTePMCCx+bbFVq866mcMO+9o+cd3lDEddp1N+nbSFxjgHrQYnDywjOnVufpvl34vWRBdm8MnqGFaqyvT+0JFltg333/37T/pBb/8/BO///Hnc7XnRdI1l6+l1u7yQ5Dpp7QafDwp4h/scOhFfY6FvzYmRpSKLJvs56rKmCKSskbBCKaMChVZbipjirwwxqgU/I7gx+O4HzIgetLPYbekWzrJH4WdyAvSfLuReQB+47maIvJVqYwpIiK5p7ATEZHcU9iJiEjuKexERCT3FHYiIpJ7CjsREck9hZ2IiOSewk5ERHJPYSciIrmnsBMRkdzT14XJfOIZsq87LiuV+BvyiZbNnKttWWfSts/o22Zm4dNNqfO04pnTv7i4r8qYf8+amT2aTb0IgE/LgWpyDW6bYV5kSejOThYQEAxTvyazZpc2WC+1GBDN+baeLHukoKu17zEB6YMFuAcbo3PZ70D55IKjJZ0ZPJz4j5slOec9ms4e66UNWv6TN03kq1DYiczBqx/hhgXK/7XvXllE/nUUdjIfb8g11wyd+HXRWzb7jH6vO/r52LAmlo9+n1j2P857XaomYJQ57Y3v8GrtLv22PeUY47svq3FBv3dGLTl26u4wem/cnvOFM8zi6LKb2sfkXd/sY9uc99LbnVHL7rNtR+eXrBOf58SyzJ3u5Pmk9+kx/ALXQyd+9ZIN+Ji97iI5prCTOTnslvZojl7nZzUu6NvQSsqbBy5UjqMPWmeP/U6AUdmLP6Atjn40wW/xpv5/7CaltNBl/16lUZPq1qeJsmqt3eX09SDaX2mDdcenaN8VeGsUDAjjWU2txh40xmXOll+gfJIOmVnH3uRqVPp9hxuaVLMlWrPK1tX4WoVmlX4vmmF8tMwo82vqD4bTCqmy6ydWUyHWfBvNOp68irxECjt5YjbVSoGBkwpIr84HH4zX21iAV79ggEm1bWM1Dinjsv9oAyIC3N9S+7Ia/GAGuI1UaDpnuCEUt2anXa1dpYjPh3hwh1ffmxis0vzNJWSF1YnUyhwbaL5N/6HgcfiXD4YRDwyJ+a1xKHmX+CEQurxPBpYk16+wFp3S6gpM3G07HE4dhJIS97dOH6wikj8ajSlPy1plBTDsLv1sloTJPxx2nU36dpVTM8A9eMwRnJmS65qBQQHjpEs/u+qX9C8Fyul1Qpf90mS7au24xJo+2hqMV5pW7o1HR04MYQ2ikJx60lEZEoY33361Gv2xcDkgrJSp9rr80Jk12lLkZVPYyVcwx7D9zyEh5uzHGB6VT+vOUuxtbU6G6af2Ez+acat4HSMdnPYZfXvlXmcx4tV5U6pjNS44rRzTr0SjYhV6ImMqY8rT8oZcU8Dcvm0ghMVRvQydd1HfV33OxwziO5uFxKF6S8XybvYmRQLcg1Rgrhl3BrW1XcTAp5Xqd4xKkI/Dq++MHhdISsQiElHYyRNzuPLBqBzeGK2YDAiptY8pG1F/WPNti0F68AUwCIIb/VrNKx+MMtVRaNmc33gQfIq4D6xoTw4mqbUXeIbuc0hIgbjLbO5je8NrSPfrWQ1+rRTmPOhsVuNs8ef/NBpTXhiFnTy55tvkoezx0PlfOWLXiUKvapIawOLQ6gQYleNRGI4GsKSH3Dt7tHwo2sk+N7ly5nkC2uNwe4OWH+8v/tm6WuDbUbw67zvB5LEP3HEX5CzOXjxqM96uDu/navNdzflEIXVtq6+W9JtrRJ7QN99/9+0/6QW//PwTv//x53O150XSNZfnZ3Pe2yHI9FPW2l2q6OvCZPlkP1d1ZyciIrmn0ZgiEkset8h+EfTztkrkMSjsRIToG3IyD8Crcik5ojKmiIjknsJORERyT2EnIiK5p7ATEZHcU9iJiEjuKexERCT3FHYiIpJ7CjsREck9hZ2IiOSewk5ERHJPYbc0LI4uu/R7k/OwiYjI3RR2SyM1D1v7IdNsi4i8PAq7JTMIgudugojI0lHYiYhI7insREQk9xR2S8YbXoO5qUEqIiILUNgtG2ePdQeqGpUpIjI3hd2ysc/o29Aq7dF87raIiCwJhd2SsVZXwP+koBMRWYDCTkREck9hJyIiuaewExGR3FPYLRWLndcFwuDzczdERGSp/Oe5GyDzsji6PKaMy37de+7GiIgsFYXd0oi+CFpERBanMqaIiOSewk5ERHJPYSciIrmnsBMRkdxT2ImISO4p7EREJPemPnrwy88/fe12vHi65iIiT+eb77/79p/nboSIiMhTUhlTRERy7/8By5lDa84VRPEAAAAASUVORK5CYII=;" vertex="1" parent="1">
          <mxGeometry x="-170" y="1020" width="443" height="460" as="geometry" />
        </mxCell>
        <mxCell id="zeVZz8eFkJ2jSE9SBWDc-48" value="" style="shape=image;verticalLabelPosition=bottom;labelBackgroundColor=#ffffff;verticalAlign=top;aspect=fixed;imageAspect=0;image=data:image/png,iVBORw0KGgoAAAANSUhEUgAAAZgAAAB+CAYAAAAZUQd+AAAWzElEQVR4nO3cT2gjaX7G8e+GzS4kOa5HOiQ74xxyMFJvEklsG+ook2Dj6VNIbqbdqFCSQ3cvCUad3AJd6BLb5A+mxMiY5LLJqVvYJFhHhe5FEpvpEn1LnCUXVXthyWXJwGw2h6qSqkqlf25X2559PtDQllxSqar0Pu/7e9/y1z75+Ns/R0RE5Jr90k3vgIiIfDUpYEREJBUKGBERSYUCRkREUqGAERGRVChgREQkFQoYERFJhQJGRERSoYAREZFUKGBERCQVChgREUmFAkZERFKhgBERkVQoYEREJBUKGBERSYUCRkREUqGAERGRVChgREQkFQoYERFJhQJGRERSoYAREZFUKGBERCQVChgREUmFAkZERFKhgBERkVQoYEREJBUKGACzSb/XpHrT+yEi8hXy9Zt9e5OTXoXcUts4NIq7HIEXDGb+atuGVNfz4DQmHl+cyUnvPq8SXnv6Jk36D1web9XoXOk9Deqn++TfPGWzNucVzCZ9k4TPbnLS22b4ZJu9+EuYTc5Wm2zWOhhWi8Nsi8JDG8Nq8Yw6m7UO1eMunw6T3z+8zSLnyT0fv45htTi8N0g8NrPeM/nzeMcp+6LEjj1zF0Tkmt1wwAAMaYcahOpxl8pH7eSG17A4O8hEH3MaXiM2z2jbaaFWod+rLLyf76u6nod3r68YLsu/l3v+dCL8DGubnNNiJ2kn7Ndc9nap1joMxhvwbOOSl8UOYLKed3j5cMFP4E45p/ihMfrJpLIB7Sc1On44lGOnnPw+/Y3Qz7OuAXOXMm0eK1xEPrhbEDAhZpNKHqDMYa8ceco9f8rm6XW8ic1OcdzazOotJzGsFocb2cTncr0u8YjyeuYkN5RzQw0G9nv0vA2Ls4MyGYg0yt4+rVHZyCbsQxCkNjv2fU5MRgFTfZTDebLtjx7vkyM/8ZkH/9Jm5ff99/Rfe+A4C+9y9bjCyvlTP/Q67G2VYs/PGsHEmZyYeSA/cT0BM0NPRN7f7QmYoIwS+9J7DfolL2sdMLYmt8vPb6TH4g2dSWUjy8DeDjUyC5RU4j1mf3T0MlaCGvfMow3ldYYaG7HePDAKCW9nI6WxYJ+qxxVyEz1/r8REZOTQ5RCAihckB13Ozp/yMpsPhV/smP1lLaFENtlpCHOHeB0MGhRqHf+YeoE2f9QYHZXmDrr03Tbtd+WEzxhs0qT/YN7risj7uB0Bs2ZxZkKjWOLIn3BvFJusnu575Y3ijIZ40RJZEvM+OfcayidrGTKuOy4lzX7TUAloCROfc9ocTBASM9zbo5JxaBSnffAgEP3XciD3USgQzSb9DXCHBow+xZDh2xnvObdEtkb9QR4y+VGHYWCX2Ftr0j+Izd9ESmRemO4U7WgoYXFWa/N4yyYIIN5nNCgiS7sdAfO2xmbR/7/9moFZodLbB2BgL9IQL7ZYIFpu8sonA3v3vUskxuoKZCAHc18rGDnsdObvc3ji+1q9qXujhKmCfXNoFLcZWC0O89ERyMBxyGXXAG9kmc9c8jLhJavHTXgVfzQ64jl6WPJHWPbEc7BLYdFQWMuQIUvmoEm1uMumP+A1rO3r6UiIyFJuRcBkH7XoHwQlIIdGscSO/1P1uEvf9P4/OG9HtjNWV/z/RedVFmFY214DavsLC+KLnMzx+8KsuRCvzOa6UOm1WJ1R0jGsFpU8DGzvhZL2eVQOcxrXFC55KrF5EncIs0uB4+NZPe5ySINCfF8Ni7OD+1SxOYqP4AyLZ/78zrpdYocmlUxCiSxyjL2RSGtr74orvgzq6yu4DHHOoXJqMdiq0QlGjDY8O7V4rjkXkQ/mVgTM8LPt0Uqm6nHXaxD9ksq4d4vXqE3MN1zBqAG8BIi+x1LLWg3qp6G5DLNJ/6BFfcqy38MNcN1pr+WPGpyExhymzzVNmYMZjv6fPAfjlcEanPS6nK36IyVjlRUueTUxugq/t/96nVMcd59102D1QR73TXNcPnvg0jgfUsm2vGNoEiuRTTnGhsXZRpYMQfAMaT9pkT2YMdILXtfcJT8ccJnPwWmT9r09tg1ga5uV8zo7dgdjtcXhsTkuNb67UNiIpOhWBEzYqLE3m/R73Zm1+1w2iztc5aTXXfheGve8gXOvDI6Du8wtNBNCgRA0WPYuBcYhcxH+XXOF9pM61PbJzirpxYLEPX/Kc7jeOZgRm50inPT2ObkosfM2/PjbiRDwJu5f+2HVYe+FQ9/c90aCwT7YXknLsFrjPV1dgXcu26ddDsMr6UIjmIFdorGaI0NCKXPaEvHRRL1B/cEKjvWa7IZXqNzb6njP3xvweMvbsFNrMehVODFtGqPRr4ik5fYETHhJrd+gFIozN2D1oyHOZzX2arXRo9XjrrcSyW+Mq5bFoBYKKLNJP9ug8Nnq5D01i8pX6Pe8hnBifiAImZpF+93oQb/kZFCP/Bw246ZHOhQW3rnQaxvv8fvmrreKzGxStXc5MiyebUD7SWi/7dcMzDw55/WMG0wNtu9lcd+04KOkUqM/mgE6tW0KtSkvM9Ma2Xfe/TwnoUer696igYnS3AOL3JurvI+ILOP2BEynxmbRb10Mi7ODLv3guaRRTMLEsmG1WH8VbvS97vGzXmu83NXvYWNYV9/XeSvX/PeoHpd5r0HSTQjmUoLjhMmJP4czsEuh8AtGcA6DfIUz623ynJGxRT4zxDl9C/cW2YHozZUDu7HANjY7D719CouWPmPvEhphiUg6bkHAZCmHwyRJZILYu5el+qgMobvTx/eKRCfnRy/h37+RyqqsW23aJP8kYytHJrTYerT4wWlQePiW+mmX/now+iuTCYLWsDg72OeMyeNrbOXIOC02O1AHcmby+RmMgmVI+0mJQjjIzBnXyPRJrRmCUdWsddUi8r5uQcAs8SdYQn/uJfxnSoK/j1Uozll6e7qFQScyElq1WvSTbmKcaAj9VU6zdzB2x75DY86fUomsYHPbNK49/6ZN8pPwN8KG/v05/ujEjd6DtLdV8hcyeDdZbgaDuE6NzeKFN5fzs/Gd/AMbKmZQVvPqb9NLZJN37Uf3a9YczHwTKwXdNo9/4TobIh/W1z75+Ns/v+mdEBGRrx79uX4REUmFAkZERFKhgBERkVQoYEREJBUKGBERSYUCRkREUqGAERGRVChgREQkFQoYERFJhQJGRERSoYAREZFUKGBERCQVChgREUmFAkZERFKhgBERkVQoYEREJBUKGBERSYUCRkREUqGAERGRVChgREQkFQoYERFJhQJGRERSoYAREZFUKGBERCQVChgREUmFAkZERFKhgBERkVQoYEREJBUKGBERSYUCRkREUqGAERGRVChgREQkFQoYERFJhQJGRERSoYAREZFUKGBERCQVX7/pHbjLDKvF4UZ2qW3c86ds1jqAQf10n3LmKtuGmZz0KqwkPrcIk5PeNsMn2+xdZXPxeecz+6LEjp3wtNmkb+YZ2FOe/0VhWJwdZHhZ3OUo4enqcZdK3qEx5fkJZpP+A5fHWzU6885BdEeon+6TfzPte7PMa8k0Nxow3sU0/fmBXWLnrcXZQZkMsy+6oLFPboRT5DQoPLSDneDsoMzllEaketzl08gjQ9oLNuyT20IQLjmAjX36G0lbznsPmx37Pv2DFvVrD5l5IervG7f1HIeOb1j4nC/CsDgzvQs9Z3bpm+En55wfP5jCop9/Vgcj/tzk7yZ/Bxe/LqftI7B0mBpWy9+XPJVel0r4Sbfth8gVGMH1FTp2xhb5zBDnVL2qNN1owBw9LI0aE6/xuJxsYAyAIa6b51PL4CixYTGpbIDrpr3HsxjUa95FnJloRLyG83rfzuLsIIfzpMRO4nckaEzqo4ZiXqCXD7r04w8u25hGdNjbKo1+qh53qXyU0FDc2nNss1OMfvbqcZdPh28Xf4mgh10sxRrHyfMTFYSzQ6NYinwnqsddzqxrDNl4421YnB106S/aqNu7FCKHyR8VL3GYvOP6lEIx9m5mk765QttaPFySQ7zEZugFqo/872r4mn+fEJNEd6ZE5rxxKG/sUq11Jnq4hrVNzhnQ/ijLjPYzReOeerTXFjQiTY6A6sR22eRGfQp36L/bKIy3k3v7oZHUZiwblun9G1aLw+UqgO/l9p1jg/rpLhdb0U7P5UVnelibXfqmNwK4eNQd9cgPe+XktwiPPEMNXPV4nzJtHhcnG7xwxywVnRqbxVPqp/scHl/M72AYFmePLtiM/N4lF50pI0DwRihum8dbF1SC38lPG4VHOz/u+VM2L3ZDoyb/+Dpt2swYOQXluScun+aXHKXJldyZgOG0SfvePusmHEUuHoPte1kGL1pkzdg2oaExEOuh+KHwrsHj4XZoLmWBkoVf8w1Uj71abqEG9dMuZ6vjL8AgoZEfW/4irx53qdCgULQZlXBCn8sLH2g/KU28btAwLTJ3NLBL7NS2KSy+a+/v2s/xuCT0MrsfCoQFSnHZFoWHNnsvdumfWgy2anQwWc8PGX4GR3a8kY/W7KvHXdZxwHVjveIptX+zSf/B+DN5DeBN9qY77L1w6Jvb1A179jXaqfHyUZcz6633mcz75FyXBjZHsRFgdA7G5KR3Hxxwh7HjMRqhR78fo1JxMGqamIMps7JqQMKRM7ZyZNwBv/GoDO4w1rlbbN5n9P1bclR/1e3uursTMHRovRly+MDCsENfPHPX6+nZUIk0Pgb1R/B8VJrwGpuJHlm+wrPQ0Lx63KWSNB8R1JmdBoUt238HT7hH2XozpLyx7124bpvGAtfTQosF/IYz2nu12Sm+9XqaQQ/ZCcJnuk5tm0It4Qm/seb86Q1NbKZzjjMb+6zbJQoP/W1O96n0mhBrUMJzPIWH/rvbuzTWuzyzTtk8XWWFS151iDVsk44eljgym/TNcvLoJWnOzK//GVs5Mlzy8qZ71/ZrBmaF7BpJ7XXE0cMG67096qcdWqsr8O61PxLzSl/Jo2avBFk97lKZMoeYSRjhByP5SUEoTh8JDext/sL2L/74goOkuaRwuc1t83irRMFs0u9Vliofj66HJbe76+5QwECn1mLQ22bbgE4HwKD+IM/gxS4dzOikIB32HoYvapvG+TaH91aJ9G/cNs9DF7/3RamQ3/LfJLjo3DaPi7sJ37P7kTKAex6qIxsWZ72u17t227TfhbdbI5uBITMa/EUYW+QzsGgPbJrR/MjEXMGHlco5dhqhwOywZ7U5OyiPRkqjgJ8Szt41sc/ZvSEZp+UdY7tJ+8G+FzzTSo6xuYnx6HL2qNUAcF0GkQdjI7UP2EhNGxFEjReL5N0sgxfevh191ubTAy94pn3maKfJryyw3HxIzmpRudhmZ2I+aAmRbWesIvN/z7BaywXGVbe7w+7YfTA2r5ws5Ud+l8LcpZxxeDX1HJmc9Lr0/X+HG1nIZCI1YffNaewifsvQhUx2zQ8XaBRLFKZe7K/ZKZYoFEsUnrS9nmmvy4mJX8v2n9uqcfG+Hz+keux/rlGj46286U/8aybM/cSYzeTJ9xtx/ed4EN+4c8ElXsNpWC0O7w14XCzN+LLb7NgOmUw29FpeULGxO+f4GtRPvX17Rp1CsUX2wL8+Rr/idUQij8U+Q/haajgz3/DaXV4seFXYuzScLJnw+erUeH7O+HxO4x+Dfm8PrBKFFxkOY9eu1zCHHgtW52XKfEp9VJqc/A4E/1rUjeB1gu9O6HtzPGcfYzq1be98UFlq26tudxfdqREMBD0iry58sZ7HPX+a3GsPl7T8hiPoQS7M3qVAk/5oQnJOA9ypsVmsMWpUzFkTjl65ZbjVon+w6Ez6f/Gf7if8ZgYGdoNBfs79K34JYPz/UA94wrSJ6A8/Gfohz3Gnts1jq8VhrzuzR2msrgCQWzfBtoONeel0E+aMwiv2vBVMhU7QsEHbbpOPl16KJTC8kULn4hJYYaGBwwIWDog48z45hrQXXg1msPoRQD5yTLxR6X2q2LHzGFoE4AajZ/+7Q5vGeS6yXNmrDviHac0vUdoOhw/cSBVi+v1i2/7++BWDOffkzP204ZHvEiORq253F925gKFziuOWyT9qks8PcT5L/vJU1/2yVugE5rJZ4DLye5l4gdkvOQVD/Mhk4oxGKLKqyGlQCC3PTbSWIeO8ZrNmQ1Aei09sGhb1tRp7idegGe3xzjMKv6SXmj2f8MFd8zmeKPEEDad/D0TQ4ASli4kGyrB4tpFlcN5mZSM66T1tRdf4cX+Exbh8algtyv7Pz9njGf4ouhPM+3jlt/IjEzrzGiBvxJ1LmigxVllhiLPEcuExkxM/vBftXBjWHuWMQ/t8hXJkHm1yuTfxx4Pv1yiQvQl77+c61PYgOF8doDP+XsZlZtwTNnX6Zhnhjs2c+c5r2e4Ou2MlMggm8jL5PBmnNfXiHwyH0TKD2UxeVpqvhBpq/16WpMl5e9crdb26T//UGk3wB44e+qWwYOgbGponBUF1PY8buVHA5KQGz4vj0YKxdgHryw/d0+P1Ls+s+Ke/btd7jjMbe9RHuxw0nJOvG5QunrMXOubeNcH5U3ZqfrmnNnn+40ZlmN59XvnXxebF7rhUZjtksmt0ai0uN/Zj14hXfnPzlYRrLRglRI8V+UrsvJicHJRnHr8ZO89Zr0Iu1pmqHs+4Fg2LZxvQfrLLXq1OmzLP5l4n4/Jhf/21//3xlncHpbKGkyW71mHvxSXlgwXKvQRBXor9a0TntCZ2v7XQ96x6HNrXJUYfV93urrsVI5jiF19w7/N/g43fGv0M0PvmNwH4lR/8kG9dfgF4Pxf/5vv893d+yv98bod+/0eR1/vf7/0Z7fY/Uul1+eMf/AD+4/v86fkKhxvw6198QTHo5ToN/vvX/pbP/w6+/O53vUn/3/tzOl+fcmhCE4EGQL7iTdjNEL7xyx3iL0N1eDmaoB6XCpLLVBX6vfsJk/iL3EdznQX7NbIf6u5n+zUDM8+MyRc6tTrte/vjMorT4LF/jsPc8xbUuvSD+uCc0kQntDx7dD9KLRjt1Gmf7oUWIcx4jRoEI5hg/wr+DbfV433gNV4vHk56XU4IlVP9EWf1uDt5TcRGbdi7FN5anB1Ee+7u+VMKi9zzlImvdJu8MXE2L8w4f+qHmb+QoraFQWfGqDh0I26wwgqvrOyt+DM5OQBeESpXT67+m/g4S41gvDmYRctVV70HKfV7l26pr33y8bd/flNv/vGXX7Lys5/x95c/BuBPVr4F8IF+/mWc43+i+JMWX3yvOfH8H2Qz/GhayPjC90ssIliy6ZVF6qE/33GfV3O+NMZolUzwyAJ/Q2xWjTk2J7PQDZiGxVkNnt+WUtpc7/l32uaVDmfcgzMumQar++I3HcZX/V1t9dQHM+Namr0UeXIZvhv70zU5GDfw8aXC8YY/WEr/w3+H3/nt6J9/mbkvk9+X0QKPxOOtv0V2HW4sYD7+8kv+eeit+/+wwRL8fI9/+PJzvvF/P+UPv/GrE88HoycZWzZQb977/iFQCRhWK9QpElnMjY5g4qWwD/uzwWd/9UcUf9LiO3/9r4m/L3edAkbkJt3oHEy8If/QP//4d7/Ll+/eTH1eRESu7kZHMCIi8tV1B5cpi4jIXaCAERGRVChgREQkFQoYERFJhQJGRERSoYAREZFUKGBERCQVChgREUmFAkZERFKhgBERkVQoYEREJBUKGBERSYUCRkREUqGAERGRVChgREQkFQoYERFJhQJGRERSoYAREZFUKGBERCQVChgREUmFAkZERFKhgBERkVQoYEREJBUKGBERSYUCRkREUqGAERGRVChgREQkFQoYERFJhQJGRERSoYAREZFUKGBERCQV/w/wxH1d3co4rgAAAABJRU5ErkJggg==;" vertex="1" parent="1">
          <mxGeometry x="560" y="1169" width="408" height="126" as="geometry" />
        </mxCell>
      </root>
    </mxGraphModel>
  </diagram>
</mxfile>
